*******************************************************************************
                     Night of the Tentacles (2013) DVDRip
*******************************************************************************

-------------------------------------------------------------------------------
                              General Information
-------------------------------------------------------------------------------
Type.................: Movie



Video Format.........: MKV
Video Bitrate........: 1249
Resolution...........: 720 x 274
Color................: 8 bit
FPS..................: 23.976
Source...............: DVD 2.628:1
Original Format......: NTSC
Genre................: Horror
IMDb Rating..........: 4.5
Movie Information....: http://www.imdb.com/title/tt2503968/

-------------------------------------------------------------------------------
                               Post Information
-------------------------------------------------------------------------------
Posted by............: RadioResearch
Posted on............: 3/26/2013

-------------------------------------------------------------------------------
                                 Release Notes
-------------------------------------------------------------------------------
SEEDBOX SUPPORTED!!

This is the Night of the Tentacles! In this obscene Faustian tale a young 
artists sells his soul to Satan for the new heart he so desperately needs. The 
only catch is that the heart is a tentacled monstrosity with a hunger for human 
flesh! Will Dave get the girl of his dreams? Will he run out of neighbors to 
feed his infernal heart? Will Delilah ever finish urinating? Find out in NIGHT 
OF THE TENTACLES!!! 

Enjoy!

RadioResearch

General
Unique ID                                : 
218756074618149790589133771023237164746 (0xA492E330BBE0F9309023C833D91EAECA)
Complete name                            : G:Night of the Tentacles 
(2012)NIGHT_OF_THE_TENTACLES.Title1.mkv
Format                                   : Matroska
Format version                           : Version 2
File size                                : 813 MiB
Duration                                 : 1h 30mn
Overall bit rate                         : 1 249 Kbps
Movie name                               : NIGHT_OF_THE_TENTACLES.Title1.DVDRip
Encoded date                             : UTC 2013-03-25 22:48:25
Writing application                      : DVDFab
Writing library                          : libebml v0.7.8 + libmatroska v0.8.1

Video
ID                                       : 1
Format                                   : AVC
Format/Info                              : Advanced Video Codec
Format profile                           : High@L4.1
Format settings, CABAC                   : Yes
Format settings, ReFrames                : 2 frames
Codec ID                                 : V_MPEG4/ISO/AVC
Duration                                 : 1h 30mn
Bit rate                                 : 1 161 Kbps
Width                                    : 720 pixels
Height                                   : 274 pixels
Display aspect ratio                     : 2.628
Frame rate mode                          : Constant
Frame rate                               : 23.976 fps
Color space                              : YUV
Chroma subsampling                       : 4:2:0
Bit depth                                : 8 bits
Scan type                                : Progressive
Bits/(Pixel*Frame)                       : 0.245
Stream size                              : 755 MiB (93%)
Writing library                          : x264 core
Default                                  : Yes
Forced                                   : No
Color primaries                          : BT.601 NTSC
Transfer characteristics                 : BT.709
Matrix coefficients                      : BT.601

Audio
ID                                       : 2
Format                                   : AC-3
Format/Info                              : Audio Coding 3
Mode extension                           : CM (complete main)
Format settings, Endianness              : Big
Codec ID                                 : A_AC3
Duration                                 : 1h 30mn
Bit rate mode                            : Constant
Bit rate                                 : 64.0 Kbps
Channel(s)                               : 2 channels
Channel positions                        : Front: L R
Sampling rate                            : 48.0 KHz
Bit depth                                : 16 bits
Compression mode                         : Lossy
Stream size                              : 41.6 MiB (5%)
Default                                  : Yes
Forced                                   : No

Menu
00:00:00.000                             : en:(01)00:00:00:000
00:11:30.000                             : en:(02)00:11:30:000
00:23:00.000                             : en:(03)00:23:00:000
00:34:30.000                             : en:(04)00:34:30:000
00:46:00.000                             : en:(05)00:46:00:000
00:57:30.000                             : en:(06)00:57:30:000
01:09:00.000                             : en:(07)01:09:00:000
01:20:30.000                             : en:(08)01:20:30:000
01:30:54.000                             : en:(09)01:30:54:000




-------------------------------------------------------------------------------
Generated with Cool NFO Creator - http://fly.to/coolbeans
-------------------------------------------------------------------------------
